<svg clip-rule="evenodd" fill-rule="evenodd" stroke-linejoin="round" stroke-miterlimit="2" viewBox="0 0 16 16" xmlns="http://www.w3.org/2000/svg"><g fill="#fc9c9c" stroke-width=".917997" transform="matrix(1.00000308 0 0 1.00000308 0 .000008)"><path d="m3.736 1.436-2.2 2.2c-.701.675-1.136 1.624-1.136 2.678v5.572c0 2.057 1.657 3.714 3.714 3.714h5.572c1.054 0 2.003-.435 2.678-1.136l2.2-2.2c.701-.675 1.136-1.624 1.136-2.678v-5.572c0-2.057-1.657-3.714-3.714-3.714h-5.572c-1.054 0-2.003.435-2.678 1.136zm5.707 10.927c.165.169.268.399.268.651s-.103.494-.285.669c-.696.697-1.641 1.088-2.626 1.088s-1.93-.391-2.626-1.088c-.18-.175-.281-.415-.281-.665 0-.51.419-.929.928-.929.251 0 .491.102.666.281.349.349.82.544 1.313.544s.965-.195 1.313-.544l.227-.1c-.034-.008-.068-.016-.101-.025.167-.161.389-.254.622-.26h.021c.298 0 .564.143.735.363-.058.006-.116.012-.174.015zm1.071-5.02c.515 0 .929.414.929.928v1.858c0 .514-.414.928-.929.928-.514 0-.928-.414-.928-.928v-1.858c0-.514.414-.928.928-.928zm-7.428 0c.514 0 .928.414.928.928v1.858c0 .514-.414.928-.928.928-.515 0-.929-.414-.929-.928v-1.858c0-.514.414-.928.929-.928z" fill="#fc9b9b" fill-opacity=".592157" fill-rule="nonzero"/><path d="m4.014 2.7c-2.057 0-3.714 1.657-3.714 3.714v5.572c0 2.057 1.657 3.714 3.714 3.714h5.572c2.057 0 3.714-1.657 3.714-3.714v-5.572c0-2.057-1.657-3.714-3.714-3.714zm4.747 9.385h.021c.51 0 .929.419.929.929 0 .252-.103.494-.285.669-.696.697-1.641 1.088-2.626 1.088s-1.93-.391-2.626-1.088c-.18-.175-.281-.415-.281-.665 0-.51.419-.929.928-.929.251 0 .491.102.666.281.349.349.82.544 1.313.544s.965-.195 1.313-.544zm1.753-4.742c.515 0 .929.414.929.928v1.858c0 .514-.414.928-.929.928-.514 0-.928-.414-.928-.928v-1.858c0-.514.414-.928.928-.928zm-7.428 0c.514 0 .928.414.928.928v1.858c0 .514-.414.928-.928.928-.515 0-.929-.414-.929-.928v-1.858c0-.514.414-.928.929-.928z"/></g></svg>